<?xml version="1.0" encoding="UTF-8" standalone="no"?>
<!-- Created with Inkscape (http://www.inkscape.org/) -->

<svg
   width="210mm"
   height="297mm"
   viewBox="0 0 210 297"
   version="1.1"
   id="svg5"
   inkscape:version="1.1.2 (b8e25be833, 2022-02-05)"
   sodipodi:docname="valentines.svg"
   xmlns:inkscape="http://www.inkscape.org/namespaces/inkscape"
   xmlns:sodipodi="http://sodipodi.sourceforge.net/DTD/sodipodi-0.dtd"
   xmlns="http://www.w3.org/2000/svg"
   xmlns:svg="http://www.w3.org/2000/svg">
  <sodipodi:namedview
     id="namedview7"
     pagecolor="#ffffff"
     bordercolor="#666666"
     borderopacity="1.0"
     inkscape:pageshadow="2"
     inkscape:pageopacity="0.0"
     inkscape:pagecheckerboard="0"
     inkscape:document-units="mm"
     showgrid="false"
     inkscape:zoom="1.4142136"
     inkscape:cx="253.14423"
     inkscape:cy="709.2281"
     inkscape:window-width="1920"
     inkscape:window-height="1174"
     inkscape:window-x="-11"
     inkscape:window-y="-11"
     inkscape:window-maximized="1"
     inkscape:current-layer="layer1" />
  <defs
     id="defs2" />
  <g
     inkscape:label="Layer 1"
     inkscape:groupmode="layer"
     id="layer1">
    <g
       aria-label="Happy Valentines Day"
       transform="rotate(-113.68888,105.26359,177.27748)"
       id="text3105"
       style="font-size:12.7px;line-height:1.25;font-family:'Agency FB';-inkscape-font-specification:'Agency FB';stroke-width:0.264583"
       inkscape:transform-center-x="1.4004371"
       inkscape:transform-center-y="-18.705091">
      <path
         d="m 121.13715,154.76284 -0.73957,-0.44273 2.3952,-4.00115 -2.0059,-1.20079 -2.3952,4.00116 -0.73957,-0.44273 4.98469,-8.32687 0.73957,0.44273 -2.19135,3.66063 2.0059,1.20078 2.19135,-3.66062 0.73957,0.44273 z"
         id="path9224" />
      <path
         d="m 124.84112,157.92237 -0.6061,-0.54089 0.11148,-0.12492 q -0.41093,-0.27529 -0.81774,-0.5552 -0.50297,-0.34911 -0.77594,-0.59272 -0.50432,-0.45004 -0.0584,-0.94973 l 1.46575,-1.6425 q 0.46244,-0.5182 0.98526,-0.0516 l 1.44818,1.29234 1.20976,-1.35564 -1.32325,-1.18086 -0.6854,0.76804 -0.59685,-0.53263 0.67714,-0.75878 q 0.46656,-0.52283 0.98476,-0.0604 l 1.48056,1.32124 q 0.5182,0.46244 0.0516,0.98526 z m -0.0973,-1.09247 1.42033,-1.5916 -1.37414,-1.22628 -1.44511,1.61937 z"
         id="path9226" />
      <path
         d="m 128.9363,160.83187 q -0.43832,0.34548 -0.95702,0.28845 -0.51382,-0.0609 -0.85546,-0.49433 l -0.84066,-1.06659 -1.79713,1.41645 -0.51053,-0.64774 6.5359,-5.15143 0.51054,0.64775 -0.1315,0.10364 q 0.35195,0.34637 0.70391,0.69273 0.44717,0.43713 0.66597,0.71473 0.42609,0.5406 -0.10477,0.95901 z m -0.41313,-0.72452 3.04392,-2.39913 -1.16368,-1.39629 -3.55043,2.79836 0.70631,0.89613 q 0.41841,0.53086 0.96388,0.10093 z"
         id="path9228" />
      <path
         d="m 131.42706,165.18563 q -0.49154,0.26434 -0.99252,0.11833 -0.49551,-0.14894 -0.75691,-0.63502 l -0.64322,-1.19607 -2.0153,1.08378 -0.39063,-0.72638 7.32935,-3.94155 0.39063,0.72638 -0.14746,0.0793 q 0.28665,0.40209 0.57329,0.80418 0.36471,0.50797 0.53212,0.81928 0.32602,0.60623 -0.26929,0.92637 z m -0.2814,-0.78512 3.41345,-1.83567 -0.90426,-1.57673 -3.98144,2.14112 0.54042,1.00492 q 0.32014,0.59531 0.93183,0.26636 z"
         id="path9230" />
      <path
         d="m 137.60345,168.30339 -6.13308,0.54835 -2.40716,0.18145 -0.26098,-0.76929 2.40915,-0.17558 5.18877,-3.33189 0.27293,0.80453 -4.16758,2.50087 4.83299,-0.53948 z"
         id="path9232" />
      <path
         d="m 142.51323,176.91204 -9.82045,-1.02405 -0.0545,-0.81052 9.59499,-2.32942 0.0574,0.85384 -7.62855,1.71863 q 0,0 -0.6286,0.0796 0.21697,-0.008 0.634,8.8e-4 l 7.78996,0.682 z"
         id="path9234" />
      <path
         d="m 132.39785,182.02726 0.0895,-0.8074 0.16641,0.0185 q -0.0138,-0.49442 -0.0214,-0.98816 -0.007,-0.61222 0.0333,-0.97586 0.0745,-0.67181 0.74015,-0.59799 l 2.188,0.24265 q 0.6903,0.0765 0.61307,0.77302 l -0.21394,1.92914 1.80587,0.20027 0.19548,-1.76273 -1.02312,-0.11347 0.0882,-0.79507 1.0108,0.11209 q 0.69646,0.0772 0.61991,0.76754 l -0.21873,1.97228 q -0.0765,0.6903 -0.77301,0.61307 z m 0.83394,-0.71237 2.1202,0.23513 0.20301,-1.83052 -2.15719,-0.23924 z"
         id="path9236" />
      <path
         d="m 131.87906,184.18402 0.19238,-0.78924 9.42876,2.29836 -0.19239,0.78924 z"
         id="path9238" />
      <path
         d="m 130.98434,188.94833 q -0.65427,-0.25092 -0.40557,-0.89939 l 0.71055,-1.8528 q 0.24869,-0.64848 0.90296,-0.39757 l 4.32513,1.6587 q 0.65426,0.25091 0.40557,0.89939 l -0.71055,1.8528 q -0.2487,0.64848 -0.90297,0.39757 l -2.02649,-0.77717 -0.17221,-0.36491 0.82158,-2.1423 -2.03808,-0.78161 -0.63506,1.65594 1.03062,0.39524 -0.28644,0.74691 z m 2.92668,0.26563 1.69647,0.6506 0.63505,-1.65594 -1.69646,-0.6506 z"
         id="path9240" />
      <path
         d="m 127.95935,192.91022 0.42244,-0.70835 4.5484,2.71249 0.88802,-1.58592 -4.50579,-2.68709 0.42244,-0.70835 5.18219,3.09046 -0.42244,0.70836 -0.1438,-0.0858 q -0.19449,0.44719 -0.38682,0.90288 -0.24101,0.54941 -0.43793,0.87962 -0.35256,0.59118 -0.9331,0.24498 z"
         id="path9242" />
      <path
         d="m 125.77374,195.65456 0.74051,-0.90845 q 0.43882,-0.53834 0.98197,-0.0956 l 3.57129,2.91112 0.45842,-0.56237 0.56237,0.45841 -0.45841,0.56237 1.45639,1.18718 -0.51326,0.62966 -1.4564,-1.18717 -0.66607,0.81712 -0.56237,-0.45842 0.66607,-0.81712 -3.55207,-2.89545 -0.66607,0.81712 z"
         id="path9244" />
      <path
         d="m 129.62553,202.2261 0.5914,-0.59252 0.73736,0.73596 -0.5914,0.59252 z m -5.19666,-5.20431 0.57388,-0.57497 4.27055,4.26244 -0.57388,0.57497 z"
         id="path9246" />
      <path
         d="m 120.68709,200.13048 0.65294,-0.50388 3.23539,4.19258 1.40813,-1.14931 -3.20508,-4.1533 0.65294,-0.50388 3.68623,4.7768 -0.65295,0.50387 -0.10229,-0.13255 q -0.34504,0.3446 -0.6912,0.69789 -0.42584,0.42261 -0.73022,0.6575 -0.54494,0.42053 -0.95788,-0.11459 z"
         id="path9248" />
      <path
         d="m 116.8963,203.03991 q -0.32601,-0.62028 0.28878,-0.9434 l 1.75653,-0.92322 q 0.61479,-0.32313 0.9408,0.29715 l 2.15514,4.10041 q 0.32601,0.62027 -0.28878,0.9434 l -1.75653,0.92322 q -0.61479,0.32312 -0.9408,-0.29715 l -1.00977,-1.92121 0.11141,-0.38782 2.031,-1.06747 -1.01554,-1.93219 -1.56991,0.82513 0.51354,0.97707 -0.7081,0.37217 z m 2.02369,2.13089 0.84532,1.60832 1.5699,-0.82512 -0.84532,-1.60833 z"
         id="path9250" />
      <path
         d="m 112.43423,204.62221 q -0.21763,-0.66609 0.44845,-0.88371 l 1.79783,-0.58741 q 0.66608,-0.21763 0.88371,0.44845 l 0.42563,1.30269 -0.77218,0.25229 -0.42178,-1.2909 -1.58563,0.51808 0.37363,1.14353 2.60018,1.00972 q 0.37177,0.13949 0.49503,0.51673 l 0.31199,0.95492 q 0.21763,0.66608 -0.44845,0.88371 l -1.77425,0.5797 q -0.66608,0.21763 -0.88371,-0.44845 l -0.37363,-1.14354 0.7604,-0.24844 0.36977,1.13175 1.58563,-0.51808 -0.32741,-1.00207 -2.61786,-1.00393 q -0.36394,-0.13552 -0.49298,-0.53045 z"
         id="path9252" />
      <path
         d="m 104.46199,206.62411 q -0.0329,-0.76824 0.45381,-1.28567 0.48084,-0.51097 1.24908,-0.54392 l 2.21798,-0.0952 0.41593,9.69592 -2.21798,0.0952 q -0.77444,0.0332 -1.29753,-0.44089 -0.52283,-0.46792 -0.55579,-1.23616 z m 0.86489,0.0498 0.2586,6.02819 q 0.0205,0.47706 0.33653,0.75522 0.31014,0.28463 0.78719,0.26416 l 1.19573,-0.0513 -0.35055,-8.17183 -1.14616,0.0492 q -0.50184,0.0215 -0.79939,0.3198 -0.30347,0.30474 -0.28195,0.80658 z"
         id="path9254" />
      <path
         d="m 99.592531,204.27644 0.803819,0.11741 -0.0242,0.16568 q 0.49461,0.003 0.98832,0.0128 0.61209,0.0142 0.97412,0.0671 0.66883,0.0977 0.57203,0.76039 l -0.31818,2.1783 q -0.10039,0.68724 -0.79376,0.58596 l -1.920587,-0.28054 -0.262614,1.79786 1.754911,0.25634 0.14879,-1.01858 0.79155,0.11562 -0.14699,1.00631 q -0.10129,0.69338 -0.78852,0.59299 l -1.963542,-0.28681 q -0.687238,-0.10039 -0.585957,-0.79376 z m 0.683099,0.85808 -0.308323,2.11081 1.822413,0.2662 0.3137,-2.14762 z"
         id="path9256" />
      <path
         d="m 93.184499,208.64976 3.220752,-5.24807 1.291202,-2.03963 0.773,0.24978 -1.297103,2.03773 -0.42379,6.15184 -0.808405,-0.26122 0.481012,-4.83649 -2.451866,4.19965 z"
         id="path9258" />
    </g>
    <circle
       style="display:inline;fill:none;stroke:#000000;stroke-width:1;stroke-miterlimit:4;stroke-dasharray:none"
       id="path123532"
       cx="-115.86844"
       cy="170.55061"
       transform="rotate(-64.884374)"
       r="27.5" />
    <circle
       style="display:inline;fill:none;stroke:#000000;stroke-width:0.5;stroke-miterlimit:4;stroke-dasharray:none"
       id="circle123636"
       cx="105.24564"
       cy="177.30302"
       r="0.7452901" />
  </g>
</svg>
