<?xml version="1.0" encoding="UTF-8" standalone="no"?>
<!-- Created with Inkscape (http://www.inkscape.org/) -->

<svg
   width="210mm"
   height="297mm"
   viewBox="0 0 210 297"
   version="1.1"
   id="svg5"
   inkscape:version="1.1.2 (b8e25be833, 2022-02-05)"
   sodipodi:docname="birthday.svg"
   xmlns:inkscape="http://www.inkscape.org/namespaces/inkscape"
   xmlns:sodipodi="http://sodipodi.sourceforge.net/DTD/sodipodi-0.dtd"
   xmlns="http://www.w3.org/2000/svg"
   xmlns:svg="http://www.w3.org/2000/svg">
  <sodipodi:namedview
     id="namedview7"
     pagecolor="#ffffff"
     bordercolor="#666666"
     borderopacity="1.0"
     inkscape:pageshadow="2"
     inkscape:pageopacity="0.0"
     inkscape:pagecheckerboard="0"
     inkscape:document-units="mm"
     showgrid="false"
     inkscape:zoom="2"
     inkscape:cx="274.75"
     inkscape:cy="611.5"
     inkscape:window-width="1920"
     inkscape:window-height="1174"
     inkscape:window-x="-11"
     inkscape:window-y="-11"
     inkscape:window-maximized="1"
     inkscape:current-layer="layer1" />
  <defs
     id="defs2" />
  <g
     inkscape:label="Layer 1"
     inkscape:groupmode="layer"
     id="layer1">
    <g
       aria-label="Happy Birthday"
       transform="rotate(-109.5856,105.20934,177.39893)"
       id="text4940"
       style="font-size:16.9333px;line-height:1.25;font-family:'Felix Titling';-inkscape-font-specification:'Felix Titling';stroke-width:0.264583"
       inkscape:transform-center-x="2.4960779"
       inkscape:transform-center-y="-21.488952">
      <path
         d="m 122.4639,155.68278 -0.96542,-0.62353 3.37337,-5.22304 -2.61846,-1.69117 -3.37338,5.22304 -0.96542,-0.62354 7.02038,-10.86975 0.96543,0.62354 -3.08628,4.77852 2.61846,1.69117 3.08628,-4.77852 0.96543,0.62354 z"
         style="font-family:'Agency FB';-inkscape-font-specification:'Agency FB'"
         id="path29548" />
      <path
         d="m 127.00796,160.32708 -0.73405,-0.79646 0.16416,-0.1513 q -0.50955,-0.41867 -1.01302,-0.84294 -0.6221,-0.52859 -0.9527,-0.8873 -0.61078,-0.6627 0.0458,-1.26788 l 2.15835,-1.98922 q 0.68094,-0.62759 1.31413,0.0594 l 1.75388,1.90299 1.7814,-1.64181 -1.60259,-1.73884 -1.00925,0.93018 -0.72285,-0.78431 0.9971,-0.91896 q 0.68702,-0.63319 1.31461,0.0478 l 1.7931,1.94556 q 0.62759,0.68094 -0.0594,1.31413 z m 0.0128,-1.46232 2.09148,-1.92759 -1.66423,-1.80572 -2.12795,1.96121 z"
         style="font-family:'Agency FB';-inkscape-font-specification:'Agency FB'"
         id="path29550" />
      <path
         d="m 131.85085,164.97802 q -0.64846,0.36502 -1.32006,0.18327 -0.66439,-0.1858 -1.02536,-0.82706 l -0.88823,-1.57792 -2.65869,1.49661 -0.53942,-0.95828 9.66924,-5.44294 0.53943,0.95828 -0.19454,0.10951 q 0.39246,0.52864 0.78493,1.05729 0.49925,0.66778 0.73043,1.07847 0.4502,0.79977 -0.33516,1.24185 z m -0.39532,-1.0394 4.50318,-2.5349 -1.246,-2.07865 -5.25252,2.95671 0.74628,1.32574 q 0.44208,0.78536 1.24906,0.3311 z"
         style="font-family:'Agency FB';-inkscape-font-specification:'Agency FB'"
         id="path29552" />
      <path
         d="m 133.9728,171.42648 q -0.71481,0.20688 -1.32696,-0.12379 -0.60422,-0.33298 -0.8088,-1.03984 l -0.50341,-1.73935 -2.93069,0.8482 -0.30572,-1.05632 10.65851,-3.0848 0.30572,1.05632 -0.21444,0.0621 q 0.26102,0.60445 0.52204,1.2089 0.33311,0.76434 0.46414,1.21705 0.25515,0.88159 -0.61056,1.13215 z m -0.14688,-1.10229 4.96391,-1.43666 -0.73704,-2.3087 -5.78991,1.67573 0.42295,1.46137 q 0.25056,0.86571 1.14009,0.60826 z"
         style="font-family:'Agency FB';-inkscape-font-specification:'Agency FB'"
         id="path29554" />
      <path
         d="m 140.8824,177.70887 -8.07938,-1.45897 -3.15913,-0.61606 -0.0641,-1.08123 3.15962,0.62431 7.84735,-2.45329 0.0671,1.13076 -6.24108,1.7451 6.40458,1.01164 z"
         style="font-family:'Agency FB';-inkscape-font-specification:'Agency FB'"
         id="path29556" />
      <path
         d="m 131.62321,188.19866 q -0.38696,-0.11999 -0.55586,-0.44072 -0.1689,-0.32073 -0.0489,-0.70769 l 1.2636,-4.07498 12.3592,3.83244 -1.25381,4.04339 q -0.12,0.38697 -0.44072,0.55587 -0.32073,0.1689 -0.7077,0.0489 l -3.67222,-1.13871 q -0.48963,-0.15183 -0.68418,-0.69692 -0.12592,-0.51517 -0.25184,-1.03033 l -0.88916,0.74577 q -0.38005,0.33229 -0.91706,0.16577 z m 7.14427,0.96881 3.7196,1.1534 0.8424,-2.71665 -4.46194,-1.3836 -0.50201,1.61894 z m -6.70666,-2.04503 4.27241,1.32482 1.07183,-0.88822 0.50691,-1.63473 -4.99895,-1.55012 z"
         style="font-family:'Agency FB';-inkscape-font-specification:'Agency FB'"
         id="path29558" />
      <path
         d="m 137.98618,195.1965 0.52008,-0.98765 1.22907,0.64721 -0.52008,0.98764 z m -8.66894,-4.58361 0.50467,-0.95838 7.11836,3.74841 -0.50467,0.95838 z"
         style="font-family:'Agency FB';-inkscape-font-specification:'Agency FB'"
         id="path29560" />
      <path
         d="m 130.21866,198.85534 0.64792,-0.86798 1.33179,0.99413 1.15874,-1.66289 -5.60543,-4.18424 0.65781,-0.88123 6.4469,4.81237 -0.6578,0.88124 -0.1789,-0.13354 q -0.26017,0.48676 -0.51867,0.98509 -0.31616,0.58942 -0.57829,0.94058 -0.54405,0.72884 -1.26627,0.18974 z"
         style="font-family:'Agency FB';-inkscape-font-specification:'Agency FB'"
         id="path29562" />
      <path
         d="m 122.76089,198.57616 1.14526,-1.0632 q 0.67867,-0.63004 1.31434,0.0547 l 4.17966,4.50226 0.70897,-0.65817 0.65817,0.70897 -0.70897,0.65817 1.70449,1.83605 -0.7938,0.73693 -1.70449,-1.83605 -1.03013,0.95631 -0.65817,-0.70897 1.03013,-0.95631 -4.15717,-4.47802 -1.03012,0.95631 z"
         style="font-family:'Agency FB';-inkscape-font-specification:'Agency FB'"
         id="path29564" />
      <path
         d="m 117.73977,201.91219 0.93563,-0.57781 3.71016,6.00776 2.02646,-1.3292 -3.6754,-5.95148 0.93563,-0.57781 6.79906,11.00954 -0.93563,0.57781 -2.68922,-4.35457 q -0.5123,0.41356 -1.02461,0.82712 -0.64701,0.52589 -1.048,0.77353 -0.78086,0.48223 -1.25441,-0.28457 z"
         style="font-family:'Agency FB';-inkscape-font-specification:'Agency FB'"
         id="path29566" />
      <path
         d="m 111.77485,204.11436 1.03537,-0.34519 0.0706,0.21178 q 1.59227,-0.81848 1.77267,-0.87862 0.66672,-0.22229 1.22366,0.0888 0.55955,0.31895 0.78445,0.99352 l 1.48799,4.4631 q 0.23536,0.70594 -0.0731,1.32301 -0.30587,0.62492 -1.00397,0.85766 l -1.71778,0.57271 1.54814,4.6435 -1.03538,0.3452 z m 1.3518,0.6039 1.9221,5.76517 1.44325,-0.48118 q 0.86282,-0.28766 0.56731,-1.17401 l -1.35985,-4.07875 q -0.2929,-0.8785 -1.15571,-0.59084 -0.20394,0.068 -1.4171,0.55961 z"
         style="font-family:'Agency FB';-inkscape-font-specification:'Agency FB'"
         id="path29568" />
      <path
         d="m 105.45799,204.9024 1.07866,-0.0984 0.0203,0.22231 q 0.64222,-0.14994 1.28519,-0.29164 0.79792,-0.17245 1.28372,-0.21679 0.89751,-0.0819 0.97867,0.80736 l 0.26677,2.92307 q 0.0842,0.92221 -0.84628,1.00712 l -2.57724,0.23521 0.22018,2.41256 2.35492,-0.21492 -0.12474,-1.36684 1.06219,-0.0969 0.12324,1.35037 q 0.0849,0.93044 -0.8373,1.01461 l -2.63487,0.24047 q -0.92221,0.0842 -1.00713,-0.84628 z m 1.15311,0.89937 0.25851,2.8325 2.4455,-0.22319 -0.26302,-2.8819 z"
         style="font-family:'Agency FB';-inkscape-font-specification:'Agency FB'"
         id="path29570" />
      <path
         d="m 98.088877,212.21616 2.971073,-7.65361 1.20647,-2.98397 1.07366,0.14298 -1.21467,2.98288 0.91377,8.17095 -1.12284,-0.14953 -0.52446,-6.45921 -2.212954,6.09467 z"
         style="font-family:'Agency FB';-inkscape-font-specification:'Agency FB'"
         id="path29572" />
    </g>
    <circle
       style="fill:none;stroke:#000000;stroke-width:1;stroke-miterlimit:4;stroke-dasharray:none"
       id="path123532"
       cx="-115.86844"
       cy="170.55061"
       transform="rotate(-64.884374)"
       r="27.5" />
    <circle
       style="fill:none;stroke:#000000;stroke-width:0.5;stroke-miterlimit:4;stroke-dasharray:none"
       id="circle123636"
       cx="105.24564"
       cy="177.30302"
       r="0.7452901" />
  </g>
</svg>
