<?xml version="1.0" encoding="UTF-8" standalone="no"?>
<!-- Created with Inkscape (http://www.inkscape.org/) -->

<svg
   width="210mm"
   height="297mm"
   viewBox="0 0 210 297"
   version="1.1"
   id="svg5"
   inkscape:version="1.1.2 (b8e25be833, 2022-02-05)"
   sodipodi:docname="per-molt-anys.svg"
   xmlns:inkscape="http://www.inkscape.org/namespaces/inkscape"
   xmlns:sodipodi="http://sodipodi.sourceforge.net/DTD/sodipodi-0.dtd"
   xmlns="http://www.w3.org/2000/svg"
   xmlns:svg="http://www.w3.org/2000/svg">
  <sodipodi:namedview
     id="namedview7"
     pagecolor="#ffffff"
     bordercolor="#666666"
     borderopacity="1.0"
     inkscape:pageshadow="2"
     inkscape:pageopacity="0.0"
     inkscape:pagecheckerboard="0"
     inkscape:document-units="mm"
     showgrid="false"
     inkscape:zoom="2"
     inkscape:cx="164"
     inkscape:cy="171.5"
     inkscape:window-width="1920"
     inkscape:window-height="1174"
     inkscape:window-x="-11"
     inkscape:window-y="-11"
     inkscape:window-maximized="1"
     inkscape:current-layer="layer1" />
  <defs
     id="defs2" />
  <g
     inkscape:label="Layer 1"
     inkscape:groupmode="layer"
     id="layer1">
    <g
       aria-label="Per Molts Anys"
       id="text1603"
       style="font-size:16.9333px;line-height:1.25;font-family:'Agency FB';-inkscape-font-specification:'Agency FB';stroke-width:0.264583"
       transform="translate(-65.729148,-136.85579)">
      <path
         d="m 73.763146,165.35621 q 0.389138,0.11274 0.56964,0.44051 0.17486,0.31751 0.06211,0.70665 l -0.849046,2.93045 4.931734,1.42889 -0.319831,1.10388 -12.428605,-3.60097 1.168877,-4.03433 q 0.112746,-0.38914 0.430264,-0.564 0.31982,-0.1828 0.708959,-0.0701 z m -0.41513,1.07627 -5.535296,-1.60375 -0.786921,2.71602 5.535296,1.60376 z"
         id="path7577" />
      <path
         d="m 81.742631,161.13082 q 0.808842,0.46766 0.34532,1.26934 l -1.324347,2.29053 q -0.463522,0.80168 -1.272364,0.33402 l -5.346947,-3.09152 q -0.808842,-0.46766 -0.345321,-1.26935 l 1.324348,-2.29052 q 0.463522,-0.80169 1.272364,-0.33403 l 2.505263,1.44851 0.150184,0.51662 -1.531276,2.64842 2.519578,1.45678 1.183636,-2.04716 -1.274105,-0.73666 0.533877,-0.92337 z m -3.797878,-0.96383 -2.097263,-1.2126 -1.183635,2.04715 2.097263,1.21261 z"
         id="path7579" />
      <path
         d="m 82.52755,153.39377 -0.731666,0.79865 -1.225416,-1.12263 -1.319609,1.53835 5.157721,4.72511 -0.742836,0.81085 -5.93199,-5.43444 0.742837,-0.81085 0.164608,0.15081 q 0.307659,-0.45823 0.614807,-0.92814 0.37366,-0.55475 0.669677,-0.87787 0.614376,-0.67063 1.278905,-0.0618 z"
         id="path7581" />
      <path
         d="m 96.069766,151.17735 -0.973269,0.47533 -3.595761,-7.36267 q -0.0762,-0.15602 -0.342282,-0.96463 l 1.606719,8.11323 -0.208026,0.1016 -5.41064,-6.25548 q 0.477741,0.71444 0.550309,0.86303 l 3.595761,7.36267 -0.973268,0.47532 -5.678473,-11.62722 0.958409,-0.46806 5.58083,6.64164 q 0.04389,0.0522 0.192997,0.31982 -0.05443,-0.11145 -0.133561,-0.34885 l -1.806628,-8.48488 0.95841,-0.46806 z"
         id="path7583" />
      <path
         d="m 102.34529,148.91499 q 0.17003,0.91871 -0.74868,1.08874 l -2.715467,0.50257 q -0.910576,0.16852 -1.080607,-0.75018 l -1.124011,-6.07322 q -0.170031,-0.9187 0.740545,-1.08723 l 2.71547,-0.50257 q 0.9187,-0.17003 1.08874,0.74867 z m -1.08733,0.16761 -1.11198,-6.00818 -2.382127,0.44088 1.111973,6.00817 z"
         id="path7585" />
      <path
         d="m 105.46959,149.79485 -1.08308,0.0112 -0.13441,-12.93906 1.08308,-0.0112 z"
         id="path7587" />
      <path
         d="m 110.21145,150.20556 -1.55108,-0.19013 q -0.91916,-0.11268 -0.80549,-1.04004 l 0.74746,-6.09764 -0.96019,-0.11771 0.1177,-0.96019 0.9602,0.1177 0.30481,-2.48665 1.07509,0.13178 -0.30482,2.48666 1.39516,0.17102 -0.1177,0.96019 -1.39516,-0.17102 -0.74343,6.06482 1.39515,0.17102 z"
         id="path7589" />
      <path
         d="m 116.01563,150.88932 q -0.28424,0.89003 -1.17426,0.60579 l -2.40227,-0.76719 q -0.89003,-0.28423 -0.60579,-1.17426 l 0.5559,-1.74066 1.03179,0.32951 -0.55086,1.72491 2.11872,0.67664 0.48799,-1.52801 -2.02408,-3.12009 q -0.2932,-0.44082 -0.13222,-0.94491 l 0.40749,-1.27596 q 0.28424,-0.89002 1.17426,-0.60579 l 2.37077,0.75713 q 0.89002,0.28423 0.60579,1.17426 l -0.48798,1.528 -1.01605,-0.32448 0.48295,-1.51225 -2.11873,-0.67664 -0.42761,1.33898 2.04771,3.12764 q 0.28784,0.43043 0.11931,0.95814 z"
         id="path7591" />
      <path
         d="m 124.45646,157.41453 -0.89783,-0.70414 1.41782,-2.54473 -2.02338,-1.58686 -2.13348,1.98346 -0.87181,-0.68372 0.0204,-0.026 9.8005,-8.75836 0.89133,0.69904 z m 1.03048,-4.14096 3.43554,-6.21615 -5.2247,4.81298 z"
         id="path7593" />
      <path
         d="m 128.28795,162.11484 -0.68016,-0.86409 5.54841,-4.36735 -1.55038,-1.86269 -5.49642,4.32643 -0.68016,-0.8641 6.32154,-4.97591 0.68016,0.8641 -0.17542,0.13808 q 0.46386,0.45562 0.93933,0.91263 0.56891,0.56234 0.88598,0.96515 0.56765,0.72116 -0.14052,1.27859 z"
         id="path7595" />
      <path
         d="m 138.41869,164.28351 -8.03521,1.68536 -3.15899,0.61676 -0.4659,-0.97782 3.16255,-0.60929 6.34944,-5.22341 0.48724,1.0226 -5.12724,3.96332 6.3151,-1.47026 z"
         id="path7597" />
      <path
         d="m 133.45437,173.05509 q -0.91039,0.21005 -1.12044,-0.70034 l -0.56695,-2.45725 q -0.21005,-0.91039 0.70034,-1.12044 l 1.7805,-0.41081 0.24351,1.05541 -1.76439,0.40709 0.50004,2.16721 1.56297,-0.36062 1.64923,-3.33345 q 0.22932,-0.47718 0.74494,-0.59615 l 1.30516,-0.30114 q 0.91039,-0.21005 1.12044,0.70034 l 0.55952,2.42502 q 0.21005,0.91039 -0.70034,1.12044 l -1.56297,0.36062 -0.23979,-1.03929 1.54685,-0.3569 -0.50003,-2.16721 -1.36961,0.316 -1.64366,3.35763 q -0.22312,0.46726 -0.76291,0.59181 z"
         id="path7599" />
    </g>
  </g>
</svg>
